<svg xmlns="http://www.w3.org/2000/svg" width="144.667" height="31.043" viewBox="0 0 144.667 31.043">
  <g id="Marcos_Logo" data-name="Marcos Logo" transform="translate(-326.777 -95.07)">
    <path id="Caminho_1" data-name="Caminho 1" d="M376.7,114.483c-.31,1.459-6.987,11.586-11.409,11.586a4.179,4.179,0,0,1-4.024-3.582c0-2.432,5.085-18.882,5.218-24.012-5.439,14.9-14.106,27.594-17.025,27.594a4.1,4.1,0,0,1-3.714-3.4c0-2.742,4.466-18.042,5.085-24.144a143.948,143.948,0,0,1-9.6,20.075c-2.786,4.6-6.014,7.474-8.844,7.474-2.7,0-5.616-2.654-5.616-7.96,0-6.544,4.555-12.249,8.712-12.249a3.408,3.408,0,0,1,3.67,3.14,3.724,3.724,0,0,1-.84,2.343,3.35,3.35,0,0,0-1.99-.663c-3.317,0-6.1,5.174-6.1,8.579,0,2.609.929,4.156,2.3,4.156,1.725,0,4.82-1.945,8.534-8.622a117.284,117.284,0,0,0,8.358-19.59,8.18,8.18,0,0,1,1.459-.133c2.7,0,5.307,1.283,5.307,3.671,0,1.459-1.239,6.9-2.3,10.922a100.426,100.426,0,0,0-2.609,11.674c3.361-2.918,9.684-13,13.929-26.134a8.693,8.693,0,0,1,1.5-.133c2.609,0,5.218,1.194,5.218,3.4l-.044.487c-.354,1.9-1.548,6.9-2.255,9.684-1.548,6.279-2.742,10.878-3.184,13.752,1.857,0,7.384-5.262,8.888-8.932C375.552,113.333,376.878,113.6,376.7,114.483Z" fill="#935e92"/>
    <path id="Caminho_2" data-name="Caminho 2" d="M371.654,121.293c0-5.218,2.7-15.389,10.613-15.389a9.311,9.311,0,0,1,5.218,1.5l.132-.929a2,2,0,0,1,.487-.044c1.592,0,4.2,1.15,4.2,2.83a2.234,2.234,0,0,1-.089.531c-1.061,3.714-3.98,12.47-3.36,12.47,1.989,0,5.571-5.793,7.384-9.552a1.255,1.255,0,0,1,1.283.973c-1.371,3.007-6.147,12.426-9.906,12.426-2.166,0-3.891-2.167-3.891-3.051,0-1.681,2.034-6.235,2.786-8.667l-.177-.089c-2.874,6.412-7.518,11.807-10.48,11.807C373.423,126.113,371.654,123.327,371.654,121.293Zm15.035-10.746a7.734,7.734,0,0,0-4.732-1.68c-2.388,0-5.218,5.97-5.218,10.967,0,1.238.265,1.99.973,1.99C379.348,121.824,383.284,117.269,386.689,110.547Z" fill="#935e92"/>
    <path id="Caminho_3" data-name="Caminho 3" d="M414.588,113.908c0,.442-5.616,12.161-9.552,12.161a4.192,4.192,0,0,1-4.289-3.8c0-2.388,2.167-7.96,3.228-12.6a33.961,33.961,0,0,1-4.466-.619,42.586,42.586,0,0,1-4.113,8.711c-.575,0-.928-1.061-.928-1.68a45.917,45.917,0,0,0,3.449-7.429,3.164,3.164,0,0,1-2.123-3.1,3.382,3.382,0,0,1,3.4-3.273,4.216,4.216,0,0,1,2.565,1.017,27.911,27.911,0,0,1-.4,3.184,42.813,42.813,0,0,0,4.864.442c1.238.089,2.521,1.725,2.521,3.538,0,1.5-3.582,11.807-2.786,11.807,2.476,0,6.412-7.253,7.561-9.6A1.174,1.174,0,0,1,414.588,113.908Z" fill="#935e92"/>
    <path id="Caminho_4" data-name="Caminho 4" d="M411.711,118.684c0-4.82,3.228-12.824,10.79-12.824,3.714,0,5.527,1.9,5.527,4.245,0,1.99-1.282,3.8-3.184,3.8a4.18,4.18,0,0,1-1.9-.486,7.4,7.4,0,0,0,1.371-3.847c0-1.15-.531-1.637-1.46-1.637-3.316,0-5.925,6.235-5.925,10.3,0,2.653,1.149,4.377,3.361,4.377,3.493,0,8.622-4.156,11.143-9.949.486,0,1.282.663,1.1,1.238-1.724,4.555-7.252,12.161-14.062,12.161C413.922,126.069,411.711,122.664,411.711,118.684Z" fill="#935e92"/>
    <path id="Caminho_5" data-name="Caminho 5" d="M454.469,109.265a1.517,1.517,0,0,1-.133.575c-1.371,2.565-4.6,4.245-7.915,4.953-.619,5.616-3.98,11.276-10.348,11.276-4.643,0-6.588-3.007-6.588-6.722,0-4.334,2.7-11.762,9.861-12.647a4.189,4.189,0,0,1,2.609-.84c2.83,0,4.6,2.476,4.6,6.987v.133a11.282,11.282,0,0,0,7.3-4.821A1.213,1.213,0,0,1,454.469,109.265Zm-10.878,5.881h-.4c-3.4,0-5.837-2.122-5.881-4.466a16.114,16.114,0,0,0-2.521,8.623c0,2.476.619,4.245,2.476,4.245C440.009,123.548,442.883,119.657,443.591,115.146Zm-2.786-6.987c-.885,0-1.327.531-1.327,1.681,0,2.211,1.548,3.449,4.069,3.449h.176V113.2C443.723,109.663,442.22,108.159,440.8,108.159Z" fill="#935e92"/>
    <path id="Caminho_6" data-name="Caminho 6" d="M453.935,126.024a5.258,5.258,0,0,1-.84.045h-.442c-2.477-.133-3.626-1.371-3.626-2.786a3.827,3.827,0,0,1,2.034-3.051,3.955,3.955,0,0,0,3.582,2.3c2.034,0,3.183-1.194,3.183-2.919,0-1.591-1.061-3.006-2.167-4.6a16.007,16.007,0,0,1-2.255-3.758,48.117,48.117,0,0,1-3.626,7.075,1.411,1.411,0,0,1-1.194-1.282,40.021,40.021,0,0,0,4.245-8.889,4.461,4.461,0,0,1,.045-.795,3.281,3.281,0,0,1,3.449-2.742,1.192,1.192,0,0,1,1.326,1.15,6.137,6.137,0,0,1-.4,1.813c.53.972,1.238,1.99,1.9,3.007,1.592,2.343,3.228,4.775,3.228,7.163a6.752,6.752,0,0,1-.663,2.742,26.944,26.944,0,0,0,5.483-7.783,1.066,1.066,0,0,1,1.061,1.061C467.732,115.986,463.088,125.184,453.935,126.024Z" fill="#935e92"/>
    <path id="Caminho_7" data-name="Caminho 7" d="M466.359,123.592a2.708,2.708,0,0,1,2.741-2.83,2.373,2.373,0,0,1,2.344,2.432,2.166,2.166,0,0,1-.044.531,2.553,2.553,0,0,1-2.565,2.344A2.331,2.331,0,0,1,466.359,123.592Z" fill="#ff895f"/>
  </g>
</svg>
