<svg xmlns="http://www.w3.org/2000/svg" xmlns:xlink="http://www.w3.org/1999/xlink" width="952.284" height="468.676" viewBox="0 0 952.284 468.676">
  <defs>
    <linearGradient id="linear-gradient" y1="0.5" x2="1" y2="0.5" gradientUnits="objectBoundingBox">
      <stop offset="0" stop-color="#ff895f"/>
      <stop offset="0.359" stop-color="#ff8f57"/>
      <stop offset="0.883" stop-color="#ffa244"/>
      <stop offset="1" stop-color="#ffa83f"/>
    </linearGradient>
    <linearGradient id="linear-gradient-3" x1="0.146" y1="0.146" x2="0.854" y2="0.854" gradientUnits="objectBoundingBox">
      <stop offset="0.082" stop-color="#eef2f6"/>
      <stop offset="0.278" stop-color="#e6ebf0"/>
      <stop offset="0.564" stop-color="#d3d8e0"/>
      <stop offset="0.904" stop-color="#b3b9c6"/>
      <stop offset="1" stop-color="#a9b0be"/>
    </linearGradient>
    <radialGradient id="radial-gradient" cx="0.5" cy="0.5" r="0.5" gradientUnits="objectBoundingBox">
      <stop offset="0" stop-color="#141f36"/>
      <stop offset="0.252" stop-color="#303a4f" stop-opacity="0.871"/>
      <stop offset="0.62" stop-color="#7f8794" stop-opacity="0.506"/>
      <stop offset="1" stop-color="#eef2f6" stop-opacity="0"/>
    </radialGradient>
    <filter id="Box" x="82.569" y="113.817" width="374.79" height="163.814" filterUnits="userSpaceOnUse">
      <feOffset dy="10" input="SourceAlpha"/>
      <feGaussianBlur stdDeviation="10" result="blur"/>
      <feFlood flood-opacity="0.102"/>
      <feComposite operator="in" in2="blur"/>
      <feComposite in="SourceGraphic"/>
    </filter>
    <radialGradient id="radial-gradient-2" cx="0.5" cy="0.5" r="0.5" gradientUnits="objectBoundingBox">
      <stop offset="0" stop-color="#7e5a4e"/>
      <stop offset="1" stop-color="#eef2f6" stop-opacity="0"/>
    </radialGradient>
    <linearGradient id="linear-gradient-4" x1="0.221" y1="1.494" x2="0.779" y2="-0.494" gradientUnits="objectBoundingBox">
      <stop offset="0" stop-color="#ff895f"/>
      <stop offset="0.157" stop-color="#f78662"/>
      <stop offset="0.387" stop-color="#e47e6b"/>
      <stop offset="0.662" stop-color="#c4717a"/>
      <stop offset="0.97" stop-color="#975f8f"/>
      <stop offset="1" stop-color="#935e92"/>
    </linearGradient>
    <linearGradient id="linear-gradient-5" x1="0.146" y1="0.146" x2="0.854" y2="0.854" gradientUnits="objectBoundingBox">
      <stop offset="0" stop-color="#eef2f6"/>
      <stop offset="0.213" stop-color="#e6ebf0"/>
      <stop offset="0.525" stop-color="#d3d8e0"/>
      <stop offset="0.896" stop-color="#b3b9c6"/>
      <stop offset="1" stop-color="#a9b0be"/>
    </linearGradient>
    <radialGradient id="radial-gradient-3" cx="0.5" cy="0.5" r="0.5" gradientTransform="translate(0)" xlink:href="#radial-gradient"/>
    <filter id="Retângulo_305" x="514.46" y="304.862" width="374.79" height="163.814" filterUnits="userSpaceOnUse">
      <feOffset dy="10" input="SourceAlpha"/>
      <feGaussianBlur stdDeviation="10" result="blur-2"/>
      <feFlood flood-opacity="0.102"/>
      <feComposite operator="in" in2="blur-2"/>
      <feComposite in="SourceGraphic"/>
    </filter>
    <radialGradient id="radial-gradient-4" cx="0.5" cy="0.5" r="0.5" gradientTransform="translate(0)" xlink:href="#radial-gradient"/>
  </defs>
  <g id="Grupo_1" data-name="Grupo 1" transform="translate(-506.602 -219)">
    <path id="Folha2" d="M1143.69,610.429s-18.133-60.441,38.279-75.551C1181.969,534.878,1202.116,601.363,1143.69,610.429Z" transform="translate(0 -66.848)" fill="url(#linear-gradient)"/>
    <path id="Folha1" d="M1144.737,626.487s33.48-87.295,113.313-53.921C1258.05,572.566,1221.459,668.773,1144.737,626.487Z" transform="translate(0 -66.848)" fill="url(#linear-gradient)"/>
    <circle id="Circulo_Bg" data-name="Circulo Bg" cx="188.06" cy="188.06" r="188.06" transform="translate(776.386 219)" opacity="0.5" fill="url(#linear-gradient-3)"/>
    <g id="Box_Marcos" data-name="Box Marcos" transform="translate(0 -66.848)">
      <circle id="Elipse_8" data-name="Elipse 8" cx="158.785" cy="158.785" r="158.785" transform="translate(615.545 334.017)" opacity="0.2" fill="url(#radial-gradient)"/>
      <g transform="matrix(1, 0, 0, 1, 506.6, 285.85)" filter="url(#Box)">
        <rect id="Box-2" data-name="Box" width="314.79" height="103.814" rx="32.63" transform="translate(112.57 133.82)" fill="#fff"/>
      </g>
      <path id="Caminho_24" data-name="Caminho 24" d="M43.225-36.15V0H37.3V-23.35q0-1.4.15-3.025L26.525-5.85A2.526,2.526,0,0,1,24.15-4.375H23.2A2.526,2.526,0,0,1,20.825-5.85L9.775-26.45q.075.825.125,1.625t.05,1.475V0H4.025V-36.15H9.1q.45,0,.775.025a2.1,2.1,0,0,1,.588.125,1.276,1.276,0,0,1,.475.325,2.776,2.776,0,0,1,.413.6L22.175-15q.425.8.787,1.65t.713,1.75q.35-.925.725-1.788t.8-1.663L35.875-35.075a2.524,2.524,0,0,1,.425-.6A1.389,1.389,0,0,1,36.788-36a2.1,2.1,0,0,1,.587-.125q.325-.025.775-.025ZM63.2-10.95a34.056,34.056,0,0,0-4.5.462,12,12,0,0,0-2.925.863A3.845,3.845,0,0,0,54.2-8.4a2.661,2.661,0,0,0-.475,1.525,2.681,2.681,0,0,0,.963,2.325,4.172,4.172,0,0,0,2.512.7,7.328,7.328,0,0,0,3.287-.688A9.763,9.763,0,0,0,63.2-6.625ZM49.05-22.075a15.22,15.22,0,0,1,10.65-4.05,10.407,10.407,0,0,1,4.025.737,8.5,8.5,0,0,1,3,2.05A8.773,8.773,0,0,1,68.587-20.2a12.056,12.056,0,0,1,.638,4V0h-2.8a2.83,2.83,0,0,1-1.35-.262,1.82,1.82,0,0,1-.75-1.062l-.55-1.85a22.323,22.323,0,0,1-1.9,1.538A11.185,11.185,0,0,1,59.95-.525a10.343,10.343,0,0,1-2.137.687A12.315,12.315,0,0,1,55.3.4a9.849,9.849,0,0,1-3-.438A6.592,6.592,0,0,1,49.925-1.35a5.892,5.892,0,0,1-1.55-2.175,7.715,7.715,0,0,1-.55-3.025,6.022,6.022,0,0,1,.325-1.938,5.664,5.664,0,0,1,1.063-1.837,8.845,8.845,0,0,1,1.913-1.65,12.428,12.428,0,0,1,2.887-1.35A24.948,24.948,0,0,1,58-14.263a39.831,39.831,0,0,1,5.2-.437v-1.5a5.614,5.614,0,0,0-1.1-3.812,4.025,4.025,0,0,0-3.175-1.238,7.538,7.538,0,0,0-2.487.35,10.236,10.236,0,0,0-1.738.788q-.75.437-1.362.787a2.7,2.7,0,0,1-1.362.35,1.781,1.781,0,0,1-1.1-.337,2.82,2.82,0,0,1-.725-.788Zm31.8.875a11.06,11.06,0,0,1,2.85-3.613,6.076,6.076,0,0,1,3.9-1.312,4.77,4.77,0,0,1,2.85.775l-.4,4.625a1.2,1.2,0,0,1-.362.638,1,1,0,0,1-.637.188,7.285,7.285,0,0,1-1.113-.125A8.6,8.6,0,0,0,86.5-20.15a5.174,5.174,0,0,0-1.825.3,4.59,4.59,0,0,0-1.437.862,5.879,5.879,0,0,0-1.125,1.363A13.3,13.3,0,0,0,81.2-15.8V0H75.025V-25.65H78.65a2,2,0,0,1,1.325.337,1.983,1.983,0,0,1,.5,1.213Zm30.475.975a3.078,3.078,0,0,1-.537.55,1.241,1.241,0,0,1-.763.2,1.7,1.7,0,0,1-.925-.287q-.45-.288-1.075-.65a8.036,8.036,0,0,0-1.488-.65,6.835,6.835,0,0,0-2.137-.287,6.521,6.521,0,0,0-2.85.587,5.4,5.4,0,0,0-2.037,1.688A7.6,7.6,0,0,0,98.3-16.413a14.3,14.3,0,0,0-.4,3.538,13.869,13.869,0,0,0,.438,3.65A7.8,7.8,0,0,0,99.6-6.537a5.432,5.432,0,0,0,2,1.65,6.061,6.061,0,0,0,2.65.563,6.57,6.57,0,0,0,2.387-.363,7.533,7.533,0,0,0,1.538-.8q.625-.437,1.088-.8A1.639,1.639,0,0,1,110.3-6.65a1.254,1.254,0,0,1,1.125.575l1.775,2.25a11.164,11.164,0,0,1-2.225,2.012,12.027,12.027,0,0,1-2.488,1.3,12.65,12.65,0,0,1-2.65.688,18.655,18.655,0,0,1-2.713.2A11.376,11.376,0,0,1,98.65-.512,10.57,10.57,0,0,1,94.975-3.1a12.356,12.356,0,0,1-2.487-4.162,16.082,16.082,0,0,1-.912-5.613,16.314,16.314,0,0,1,.813-5.237,11.865,11.865,0,0,1,2.387-4.175,10.946,10.946,0,0,1,3.9-2.762,13.435,13.435,0,0,1,5.35-1,12.726,12.726,0,0,1,5.037.925,12.309,12.309,0,0,1,3.887,2.65ZM127.95-26.05a13.985,13.985,0,0,1,5.187.925,11.365,11.365,0,0,1,4,2.625,11.53,11.53,0,0,1,2.563,4.15,15.786,15.786,0,0,1,.9,5.475,15.863,15.863,0,0,1-.9,5.5A11.782,11.782,0,0,1,137.137-3.2a11.2,11.2,0,0,1-4,2.65,13.985,13.985,0,0,1-5.187.925,14.155,14.155,0,0,1-5.225-.925,11.177,11.177,0,0,1-4.013-2.65,11.928,11.928,0,0,1-2.575-4.175,15.667,15.667,0,0,1-.912-5.5,15.59,15.59,0,0,1,.912-5.475,11.671,11.671,0,0,1,2.575-4.15,11.341,11.341,0,0,1,4.013-2.625A14.155,14.155,0,0,1,127.95-26.05Zm0,21.675a5.431,5.431,0,0,0,4.737-2.15,10.78,10.78,0,0,0,1.538-6.3,10.9,10.9,0,0,0-1.538-6.325,5.407,5.407,0,0,0-4.737-2.175,5.515,5.515,0,0,0-4.812,2.187,10.778,10.778,0,0,0-1.562,6.313,10.657,10.657,0,0,0,1.563,6.288A5.54,5.54,0,0,0,127.95-4.375ZM160.975-20.65a1.648,1.648,0,0,1-.525.563,1.36,1.36,0,0,1-.7.163,2.205,2.205,0,0,1-.963-.25q-.512-.25-1.187-.563a10.876,10.876,0,0,0-1.537-.562,7.364,7.364,0,0,0-2.038-.25,4.691,4.691,0,0,0-2.863.775,2.413,2.413,0,0,0-1.037,2.025,1.931,1.931,0,0,0,.537,1.387,4.833,4.833,0,0,0,1.425.988,13.946,13.946,0,0,0,2.012.763q1.125.337,2.288.737t2.287.913a8.02,8.02,0,0,1,2.013,1.3,6.039,6.039,0,0,1,1.425,1.888,5.987,5.987,0,0,1,.538,2.65,8.652,8.652,0,0,1-.663,3.412,7.372,7.372,0,0,1-1.962,2.7,9.255,9.255,0,0,1-3.212,1.775A13.948,13.948,0,0,1,152.4.4a13.966,13.966,0,0,1-2.587-.237A15.272,15.272,0,0,1,147.387-.5a13.42,13.42,0,0,1-2.15-1A10.436,10.436,0,0,1,143.5-2.75l1.425-2.35a2.015,2.015,0,0,1,.65-.65,1.822,1.822,0,0,1,.95-.225,2,2,0,0,1,1.087.325q.513.325,1.188.7a10.614,10.614,0,0,0,1.588.7,6.985,6.985,0,0,0,2.313.325,6,6,0,0,0,1.887-.262,3.994,3.994,0,0,0,1.3-.687,2.581,2.581,0,0,0,.75-.988,2.96,2.96,0,0,0,.238-1.162,2.074,2.074,0,0,0-.538-1.475,4.7,4.7,0,0,0-1.425-1,13.763,13.763,0,0,0-2.025-.762Q151.75-10.6,150.563-11a21.509,21.509,0,0,1-2.325-.937,7.924,7.924,0,0,1-2.025-1.363,6.167,6.167,0,0,1-1.425-2.025,7.067,7.067,0,0,1-.537-2.9,7.389,7.389,0,0,1,.625-3,7.037,7.037,0,0,1,1.837-2.488,9.125,9.125,0,0,1,3.025-1.7,12.6,12.6,0,0,1,4.188-.638,12.819,12.819,0,0,1,4.825.875,10.9,10.9,0,0,1,3.625,2.3Z" transform="translate(725.221 486.617)" fill="#293947"/>
      <circle id="Sombra_mão" data-name="Sombra mão" cx="37.005" cy="37.005" r="37.005" transform="translate(644.49 448.167)" opacity="0.5" fill="url(#radial-gradient-2)"/>
      <path id="Mão" d="M684.692,467.448c2.6,0,3.531-2.6,3.116-4.673s.415-6.854,5.192-6.854,4.362,2.6,3.531,3.739-3.323,7.373-1.973,12.565,2.7,13.708-4.673,19.939-13.5,5.4-18.174,1.558c-3.716-3.056-14.856-13.141-19.26-17.141a2.455,2.455,0,0,1-.161-3.475h0a2.459,2.459,0,0,1,3.361-.257l9.661,7.794a1.163,1.163,0,0,0,1.627-.166h0a1.156,1.156,0,0,0-.131-1.612c-2.338-2.024-9.044-7.913-14.613-13.6a3.122,3.122,0,0,1-.014-4.342h0a3.122,3.122,0,0,1,4.688.188,112.808,112.808,0,0,0,11.392,12.209,1.1,1.1,0,0,0,1.486-.016h0a1.091,1.091,0,0,0,.041-1.565c-2.594-2.653-10.993-11.268-15.2-15.879a3.285,3.285,0,0,1,.264-4.688h0a3.281,3.281,0,0,1,4.675.353c3.666,4.357,10.965,12.993,13.422,15.614a.883.883,0,0,0,1.345-.073h0a.879.879,0,0,0-.007-1.09c-1.561-1.944-6.994-8.712-10.352-12.923a3.269,3.269,0,0,1,.6-4.654h0a3.268,3.268,0,0,1,4.641.738c2.412,3.447,6.52,9.272,8.973,12.5C681.451,465.972,682.719,467.448,684.692,467.448Z" fill="#9f6d62"/>
      <g id="vento2">
        <path id="Caminho_14" data-name="Caminho 14" d="M646.955,483.6a16.523,16.523,0,0,0,8.887,9.953" fill="none" stroke="#9f6d62" stroke-linecap="round" stroke-linejoin="round" stroke-width="2"/>
        <path id="Caminho_15" data-name="Caminho 15" d="M638.615,486.8a22.42,22.42,0,0,0,12.06,13.507" fill="none" stroke="#9f6d62" stroke-linecap="round" stroke-linejoin="round" stroke-width="2"/>
      </g>
      <g id="vento1">
        <path id="Caminho_16" data-name="Caminho 16" d="M700.109,453.74a16.52,16.52,0,0,0-8.886-9.953" fill="none" stroke="#9f6d62" stroke-linecap="round" stroke-linejoin="round" stroke-width="2"/>
        <path id="Caminho_17" data-name="Caminho 17" d="M708.45,450.541a22.423,22.423,0,0,0-12.06-13.508" fill="none" stroke="#9f6d62" stroke-linecap="round" stroke-linejoin="round" stroke-width="2"/>
      </g>
      <path id="Caminho_23" data-name="Caminho 23" d="M26.372-12.53a14.475,14.475,0,0,1-.892,5.171,11.842,11.842,0,0,1-2.52,4.051A11.263,11.263,0,0,1,19.049-.674,13.19,13.19,0,0,1,14,.262,13.124,13.124,0,0,1,8.96-.674a11.281,11.281,0,0,1-3.9-2.634,11.842,11.842,0,0,1-2.52-4.051,14.475,14.475,0,0,1-.892-5.171A14.475,14.475,0,0,1,2.537-17.7a11.937,11.937,0,0,1,2.52-4.06,11.324,11.324,0,0,1,3.9-2.651A13.017,13.017,0,0,1,14-25.358a13.082,13.082,0,0,1,5.049.945,11.305,11.305,0,0,1,3.911,2.651,11.937,11.937,0,0,1,2.52,4.06A14.475,14.475,0,0,1,26.372-12.53Zm-3.483,0a12.745,12.745,0,0,0-.63-4.147,8.773,8.773,0,0,0-1.785-3.106,7.746,7.746,0,0,0-2.8-1.951A9.505,9.505,0,0,0,14-22.417a9.458,9.458,0,0,0-3.657.682,7.829,7.829,0,0,0-2.809,1.951A8.7,8.7,0,0,0,5.74-16.677a12.745,12.745,0,0,0-.63,4.147,12.665,12.665,0,0,0,.63,4.139,8.712,8.712,0,0,0,1.794,3.1,7.736,7.736,0,0,0,2.809,1.943A9.566,9.566,0,0,0,14-2.678a9.614,9.614,0,0,0,3.675-.674,7.654,7.654,0,0,0,2.8-1.943,8.784,8.784,0,0,0,1.785-3.1A12.665,12.665,0,0,0,22.89-12.53ZM33.372-25.778V0H30.257V-25.778ZM48.02-7.98a25.964,25.964,0,0,0-3.666.341,10.426,10.426,0,0,0-2.468.709A3.407,3.407,0,0,0,40.5-5.9a2.221,2.221,0,0,0-.429,1.33A2.935,2.935,0,0,0,40.3-3.36a2.244,2.244,0,0,0,.621.831,2.5,2.5,0,0,0,.927.472A4.254,4.254,0,0,0,43-1.907,6.359,6.359,0,0,0,44.5-2.074a5.67,5.67,0,0,0,1.286-.481,7.252,7.252,0,0,0,1.155-.752,10.007,10.007,0,0,0,1.076-1ZM37.958-15.225a10.123,10.123,0,0,1,3.167-2.118,9.78,9.78,0,0,1,3.762-.7,6.713,6.713,0,0,1,2.643.49,5.419,5.419,0,0,1,1.943,1.365,5.781,5.781,0,0,1,1.19,2.117,8.819,8.819,0,0,1,.4,2.73V0H49.682a1.358,1.358,0,0,1-.7-.149A1.013,1.013,0,0,1,48.6-.735l-.35-1.68a17.37,17.37,0,0,1-1.365,1.146,7.812,7.812,0,0,1-1.4.84A7.6,7.6,0,0,1,43.916.1,8.57,8.57,0,0,1,42.07.28a6.387,6.387,0,0,1-1.943-.289,4.487,4.487,0,0,1-1.584-.866,4.074,4.074,0,0,1-1.068-1.461,5.106,5.106,0,0,1-.394-2.091,3.9,3.9,0,0,1,.577-2.021,5.061,5.061,0,0,1,1.873-1.724A12.281,12.281,0,0,1,42.91-9.406a25.755,25.755,0,0,1,5.11-.551V-11.34a4.739,4.739,0,0,0-.893-3.124,3.219,3.219,0,0,0-2.607-1.059,5.606,5.606,0,0,0-1.934.289,7.253,7.253,0,0,0-1.347.648q-.569.359-.98.648a1.414,1.414,0,0,1-.814.289.894.894,0,0,1-.542-.166,1.525,1.525,0,0,1-.385-.411ZM49.6-25.358l-4.077,4.515a1.672,1.672,0,0,1-.481.376,1.393,1.393,0,0,1-.6.114H42.577l2.59-4.235a1.76,1.76,0,0,1,.534-.586,1.6,1.6,0,0,1,.849-.184Zm6.02,29.593a.8.8,0,0,1-.193-.227.584.584,0,0,1-.053-.263.45.45,0,0,1,.079-.245,1.365,1.365,0,0,1,.184-.227q.175-.192.446-.507a7.048,7.048,0,0,0,.551-.744,7.222,7.222,0,0,0,.516-.945,4.591,4.591,0,0,0,.341-1.094A.358.358,0,0,1,57.374,0H57.26a1.939,1.939,0,0,1-1.479-.6,2.168,2.168,0,0,1-.569-1.549,1.921,1.921,0,0,1,.569-1.4,2.029,2.029,0,0,1,1.514-.578,2.126,2.126,0,0,1,.928.193A1.89,1.89,0,0,1,58.9-3.4a2.412,2.412,0,0,1,.411.787,3.23,3.23,0,0,1,.14.971,6.55,6.55,0,0,1-.219,1.636,8.037,8.037,0,0,1-.647,1.68A10.413,10.413,0,0,1,57.54,3.29a9.669,9.669,0,0,1-1.4,1.452ZM84.577-10.8a6.142,6.142,0,0,0-.306-1.986,4.461,4.461,0,0,0-.893-1.558,3.982,3.982,0,0,0-1.426-1.015,4.815,4.815,0,0,0-1.907-.359,4.788,4.788,0,0,0-3.544,1.3A6.108,6.108,0,0,0,74.882-10.8ZM87.1-2.485a5.917,5.917,0,0,1-1.382,1.216,8.608,8.608,0,0,1-1.724.849,10.949,10.949,0,0,1-1.9.5A11.6,11.6,0,0,1,80.15.245a9.014,9.014,0,0,1-3.386-.621A7.432,7.432,0,0,1,74.086-2.2a8.349,8.349,0,0,1-1.759-2.966,12.062,12.062,0,0,1-.63-4.06,10.33,10.33,0,0,1,.569-3.465A8.167,8.167,0,0,1,73.9-15.479a7.532,7.532,0,0,1,2.607-1.855,8.56,8.56,0,0,1,3.465-.674,7.982,7.982,0,0,1,2.949.534,6.67,6.67,0,0,1,2.345,1.54,7.055,7.055,0,0,1,1.549,2.485,9.465,9.465,0,0,1,.56,3.369,2.031,2.031,0,0,1-.158.98.654.654,0,0,1-.6.245H74.778a10.364,10.364,0,0,0,.464,2.922,5.87,5.87,0,0,0,1.146,2.074,4.628,4.628,0,0,0,1.75,1.243,6.01,6.01,0,0,0,2.275.411,6.674,6.674,0,0,0,2.021-.271A9.616,9.616,0,0,0,83.9-3.062a11.147,11.147,0,0,0,1.024-.586,1.357,1.357,0,0,1,.709-.271.685.685,0,0,1,.6.3ZM105.77-17.728V0h-1.855a.794.794,0,0,1-.84-.648l-.245-1.908A9.752,9.752,0,0,1,100.24-.5,6.787,6.787,0,0,1,96.95.28,6.4,6.4,0,0,1,94.386-.2a5.083,5.083,0,0,1-1.864-1.356,5.76,5.76,0,0,1-1.129-2.117,9.453,9.453,0,0,1-.376-2.748V-17.728h3.115V-6.423a4.735,4.735,0,0,0,.919,3.115A3.448,3.448,0,0,0,97.86-2.2a5.291,5.291,0,0,0,2.581-.656,8.2,8.2,0,0,0,2.214-1.811V-17.728Zm24.22,2.923a.69.69,0,0,1-.648.385,1.218,1.218,0,0,1-.6-.192q-.332-.193-.814-.429a7.643,7.643,0,0,0-1.146-.437,5.468,5.468,0,0,0-1.575-.2,4.648,4.648,0,0,0-1.418.2,3.4,3.4,0,0,0-1.076.551,2.438,2.438,0,0,0-.682.814,2.185,2.185,0,0,0-.236,1.006,1.676,1.676,0,0,0,.394,1.137,3.422,3.422,0,0,0,1.041.788,9.078,9.078,0,0,0,1.47.586q.822.254,1.689.542t1.689.639a6.128,6.128,0,0,1,1.47.875,4,4,0,0,1,1.041,1.286,3.937,3.937,0,0,1,.394,1.829,5.791,5.791,0,0,1-.437,2.266,4.945,4.945,0,0,1-1.295,1.8,6.245,6.245,0,0,1-2.1,1.2,8.628,8.628,0,0,1-2.87.438,8.952,8.952,0,0,1-3.36-.6,8.514,8.514,0,0,1-2.555-1.549l.735-1.19a1.068,1.068,0,0,1,.332-.35.9.9,0,0,1,.49-.123,1.173,1.173,0,0,1,.665.245q.35.245.849.542a6.458,6.458,0,0,0,1.216.543,5.585,5.585,0,0,0,1.785.245,4.869,4.869,0,0,0,1.592-.236,3.345,3.345,0,0,0,1.137-.639,2.529,2.529,0,0,0,.674-.928,2.882,2.882,0,0,0,.219-1.12,1.858,1.858,0,0,0-.394-1.216,3.323,3.323,0,0,0-1.041-.822,8.486,8.486,0,0,0-1.479-.6q-.831-.254-1.7-.534t-1.7-.639a5.967,5.967,0,0,1-1.479-.9,4.083,4.083,0,0,1-1.041-1.339,4.329,4.329,0,0,1-.394-1.934,4.716,4.716,0,0,1,.42-1.951,4.785,4.785,0,0,1,1.225-1.645,6.033,6.033,0,0,1,1.978-1.129,7.914,7.914,0,0,1,2.677-.42,8.469,8.469,0,0,1,3.141.551,7.434,7.434,0,0,1,2.406,1.514Zm12.3-3.2a9.04,9.04,0,0,1,3.5.648,7.5,7.5,0,0,1,2.66,1.838,8.065,8.065,0,0,1,1.689,2.879,11.446,11.446,0,0,1,.586,3.771,11.426,11.426,0,0,1-.586,3.78,8.077,8.077,0,0,1-1.689,2.87,7.405,7.405,0,0,1-2.66,1.829,9.149,9.149,0,0,1-3.5.639,9.264,9.264,0,0,1-3.526-.639A7.389,7.389,0,0,1,136.1-2.223a8.078,8.078,0,0,1-1.689-2.87,11.426,11.426,0,0,1-.586-3.78,11.447,11.447,0,0,1,.586-3.771,8.066,8.066,0,0,1,1.689-2.879,7.483,7.483,0,0,1,2.669-1.838A9.154,9.154,0,0,1,142.292-18.008Zm0,15.82a4.551,4.551,0,0,0,3.92-1.759,8.143,8.143,0,0,0,1.295-4.909,8.218,8.218,0,0,0-1.295-4.935,4.542,4.542,0,0,0-3.92-1.767,5.5,5.5,0,0,0-2.319.455,4.307,4.307,0,0,0-1.645,1.313,5.829,5.829,0,0,0-.98,2.109,11.3,11.3,0,0,0-.324,2.826,8.1,8.1,0,0,0,1.3,4.909A4.613,4.613,0,0,0,142.292-2.187Zm26.95-15.54V0h-1.855a.794.794,0,0,1-.84-.648L166.3-2.555A9.752,9.752,0,0,1,163.712-.5a6.787,6.787,0,0,1-3.29.779A6.4,6.4,0,0,1,157.859-.2a5.083,5.083,0,0,1-1.864-1.356,5.76,5.76,0,0,1-1.129-2.117,9.453,9.453,0,0,1-.376-2.748V-17.728H157.6V-6.423a4.735,4.735,0,0,0,.919,3.115,3.448,3.448,0,0,0,2.809,1.1,5.291,5.291,0,0,0,2.581-.656,8.2,8.2,0,0,0,2.214-1.811V-17.728Zm21.368-.28a9.04,9.04,0,0,1,3.5.648,7.5,7.5,0,0,1,2.66,1.838,8.065,8.065,0,0,1,1.689,2.879,11.446,11.446,0,0,1,.586,3.771,11.426,11.426,0,0,1-.586,3.78,8.077,8.077,0,0,1-1.689,2.87,7.405,7.405,0,0,1-2.66,1.829,9.149,9.149,0,0,1-3.5.639,9.264,9.264,0,0,1-3.526-.639,7.389,7.389,0,0,1-2.669-1.829,8.078,8.078,0,0,1-1.689-2.87,11.426,11.426,0,0,1-.586-3.78,11.447,11.447,0,0,1,.586-3.771,8.066,8.066,0,0,1,1.689-2.879,7.483,7.483,0,0,1,2.669-1.838A9.154,9.154,0,0,1,190.61-18.008Zm0,15.82a4.551,4.551,0,0,0,3.92-1.759,8.143,8.143,0,0,0,1.295-4.909,8.218,8.218,0,0,0-1.295-4.935,4.542,4.542,0,0,0-3.92-1.767,5.5,5.5,0,0,0-2.319.455,4.307,4.307,0,0,0-1.645,1.313,5.829,5.829,0,0,0-.98,2.109,11.3,11.3,0,0,0-.324,2.826,8.1,8.1,0,0,0,1.3,4.909A4.613,4.613,0,0,0,190.61-2.187Z" transform="translate(650.188 397.868)"/>
    </g>
    <g id="Marcos" transform="translate(0 -66.848)">
      <rect id="Corpo" width="307.03" height="86.172" rx="43.086" transform="translate(859.806 579.37)" fill="url(#linear-gradient-4)"/>
      <circle id="Orelha2" cx="17.822" cy="17.822" r="17.822" transform="translate(1016.976 418.231)" fill="#7e5a4e"/>
      <circle id="Orelha1" cx="17.822" cy="17.822" r="17.822" transform="translate(902.021 446.747)" fill="#7e5a4e"/>
      <path id="Pescoço" d="M922.8,468.692s30.213,72.277-9.594,112.084c0,0,34.5,38.038,82.268,38.038s84.036-38.922,84.036-38.922-53.6-26.625-43.165-134.5Z" fill="#7e5a4e"/>
      <rect id="Rosto" width="115.911" height="155.508" rx="57.956" transform="matrix(0.98, -0.201, 0.201, 0.98, 903.185, 373.131)" fill="#9f6d62"/>
      <path id="sorriso" d="M1017.378,479.406a56.808,56.808,0,0,1-54.55,14.581l-1.2-7.181,6.49-.64a20.788,20.788,0,0,1-6.96-2.17l-1.63-9.759s28.69,6.109,55.5-8.94Z" fill="#eef2f6"/>
      <rect id="Nariz" width="25.381" height="47.423" rx="12.691" transform="translate(971.466 419.602) rotate(-13.883)" fill="#ff895f"/>
      <circle id="Olho2" cx="4.456" cy="4.456" r="4.456" transform="translate(999.423 414.04)" fill="#141f36"/>
      <circle id="Olho1" cx="4.456" cy="4.456" r="4.456" transform="translate(942.391 426.516)" fill="#141f36"/>
      <rect id="sombrancelha2" width="34.183" height="14.075" rx="7.038" transform="translate(930.106 412.069) rotate(-20.851)" fill="#141f36"/>
      <rect id="sombrancelha1" width="34.183" height="14.075" rx="7.038" transform="matrix(0.949, -0.314, 0.314, 0.949, 977.063, 381.095)" fill="#141f36"/>
    </g>
    <circle id="Elipse_14" data-name="Elipse 14" cx="17.519" cy="17.519" r="17.519" transform="translate(543.926 306.943)" fill="url(#linear-gradient-5)"/>
    <circle id="Elipse_15" data-name="Elipse 15" cx="9.381" cy="9.381" r="9.381" transform="translate(708.521 589.312)" fill="url(#linear-gradient-5)"/>
    <circle id="Elipse_16" data-name="Elipse 16" cx="9.381" cy="9.381" r="9.381" transform="translate(1440.123 499.089)" fill="url(#linear-gradient-5)"/>
    <circle id="Elipse_17" data-name="Elipse 17" cx="38.741" cy="38.741" r="38.741" transform="translate(906.286 564.826)" fill="url(#linear-gradient-5)"/>
    <circle id="Elipse_18" data-name="Elipse 18" cx="34.328" cy="34.328" r="34.328" transform="translate(1277.863 499.089)" fill="url(#linear-gradient-5)"/>
    <g id="_" data-name="&lt;/&gt;" transform="translate(0 -66.848)">
      <path id="_2" data-name="&gt;" d="M1114.655,517.2l22.909-22.909-22.909-22.909" fill="none" stroke="#935e92" stroke-linejoin="round" stroke-width="18"/>
      <path id="_3" data-name="&lt;" d="M822.639,596.759l-22.909,22.909,22.909,22.909" fill="none" stroke="#935e92" stroke-linejoin="round" stroke-width="18"/>
      <line id="Linha_2" data-name="Linha 2" x1="15.51" y2="75.888" transform="translate(1071.416 451.597)" fill="none" stroke="#935e92" stroke-linejoin="round" stroke-width="18"/>
    </g>
    <g id="Teclado" transform="translate(0 -66.848)">
      <circle id="Sombra_teclado" data-name="Sombra teclado" cx="69.293" cy="69.293" r="69.293" transform="translate(1162.294 399.138)" opacity="0.2" fill="url(#radial-gradient-3)"/>
      <rect id="Retângulo_250" data-name="Retângulo 250" width="200.053" height="75.346" rx="8.435" transform="matrix(0.988, -0.155, 0.155, 0.988, 1187.081, 431.442)" fill="none" stroke="#fff" stroke-linecap="round" stroke-linejoin="round" stroke-width="3"/>
      <rect id="Retângulo_251" data-name="Retângulo 251" width="12.778" height="12.511" transform="matrix(0.988, -0.155, 0.155, 0.988, 1199.916, 489.526)" fill="#fff"/>
      <rect id="Retângulo_252" data-name="Retângulo 252" width="12.778" height="12.511" transform="matrix(0.988, -0.155, 0.155, 0.988, 1191.189, 433.768)" fill="#fff"/>
      <rect id="Retângulo_253" data-name="Retângulo 253" width="23.552" height="12.511" transform="matrix(0.988, -0.155, 0.155, 0.988, 1197.734, 475.586)" fill="#fff"/>
      <rect id="Retângulo_254" data-name="Retângulo 254" width="23.552" height="12.511" transform="matrix(0.988, -0.155, 0.155, 0.988, 1193.371, 447.707)" fill="#fff"/>
      <rect id="Retângulo_255" data-name="Retângulo 255" width="31.506" height="12.511" transform="matrix(0.988, -0.155, 0.155, 0.988, 1195.553, 461.647)" fill="#fff"/>
      <rect id="Retângulo_256" data-name="Retângulo 256" width="12.778" height="12.511" transform="matrix(0.988, -0.155, 0.155, 0.988, 1214.523, 487.24)" fill="#fff"/>
      <rect id="Retângulo_257" data-name="Retângulo 257" width="12.778" height="12.511" transform="matrix(0.988, -0.155, 0.155, 0.988, 1223.386, 471.572)" fill="#fff"/>
      <rect id="Retângulo_258" data-name="Retângulo 258" width="12.778" height="12.511" transform="matrix(0.988, -0.155, 0.155, 0.988, 1238.168, 469.258)" fill="#fff"/>
      <rect id="Retângulo_259" data-name="Retângulo 259" width="12.778" height="12.511" transform="matrix(0.988, -0.155, 0.155, 0.988, 1252.949, 466.945)" fill="#fff"/>
      <rect id="Retângulo_260" data-name="Retângulo 260" width="12.778" height="12.511" transform="matrix(0.988, -0.155, 0.155, 0.988, 1267.731, 464.631)" fill="#fff"/>
      <rect id="Retângulo_261" data-name="Retângulo 261" width="12.778" height="12.511" transform="matrix(0.988, -0.155, 0.155, 0.988, 1282.513, 462.318)" fill="#fff"/>
      <rect id="Retângulo_262" data-name="Retângulo 262" width="12.778" height="12.511" transform="matrix(0.988, -0.155, 0.155, 0.988, 1297.295, 460.004)" fill="#fff"/>
      <rect id="Retângulo_263" data-name="Retângulo 263" width="12.778" height="12.511" transform="matrix(0.988, -0.155, 0.155, 0.988, 1312.077, 457.691)" fill="#fff"/>
      <rect id="Retângulo_264" data-name="Retângulo 264" width="12.778" height="12.511" transform="matrix(0.988, -0.155, 0.155, 0.988, 1326.859, 455.377)" fill="#fff"/>
      <rect id="Retângulo_265" data-name="Retângulo 265" width="12.778" height="12.511" transform="matrix(0.988, -0.155, 0.155, 0.988, 1341.641, 453.064)" fill="#fff"/>
      <rect id="Retângulo_266" data-name="Retângulo 266" width="12.778" height="12.511" transform="matrix(0.988, -0.155, 0.155, 0.988, 1219.022, 443.693)" fill="#fff"/>
      <rect id="Retângulo_267" data-name="Retângulo 267" width="12.778" height="12.511" transform="matrix(0.988, -0.155, 0.155, 0.988, 1233.804, 441.379)" fill="#fff"/>
      <rect id="Retângulo_268" data-name="Retângulo 268" width="12.778" height="12.511" transform="matrix(0.988, -0.155, 0.155, 0.988, 1248.586, 439.066)" fill="#fff"/>
      <rect id="Retângulo_269" data-name="Retângulo 269" width="12.778" height="12.511" transform="matrix(0.988, -0.155, 0.155, 0.988, 1263.368, 436.752)" fill="#fff"/>
      <rect id="Retângulo_270" data-name="Retângulo 270" width="12.778" height="12.511" transform="matrix(0.988, -0.155, 0.155, 0.988, 1278.15, 434.439)" fill="#fff"/>
      <rect id="Retângulo_271" data-name="Retângulo 271" width="12.778" height="12.511" transform="matrix(0.988, -0.155, 0.155, 0.988, 1292.932, 432.125)" fill="#fff"/>
      <rect id="Retângulo_272" data-name="Retângulo 272" width="12.778" height="12.511" transform="matrix(0.988, -0.155, 0.155, 0.988, 1307.714, 429.812)" fill="#fff"/>
      <rect id="Retângulo_273" data-name="Retângulo 273" width="12.778" height="12.511" transform="matrix(0.988, -0.155, 0.155, 0.988, 1322.496, 427.498)" fill="#fff"/>
      <rect id="Retângulo_274" data-name="Retângulo 274" width="12.778" height="12.511" transform="matrix(0.988, -0.155, 0.155, 0.988, 1337.278, 425.185)" fill="#fff"/>
      <rect id="Retângulo_275" data-name="Retângulo 275" width="12.778" height="12.511" transform="matrix(0.988, -0.155, 0.155, 0.988, 1352.337, 422.828)" fill="#fff"/>
      <rect id="Retângulo_276" data-name="Retângulo 276" width="12.778" height="12.511" transform="matrix(0.988, -0.155, 0.155, 0.988, 1206.335, 431.474)" fill="#fff"/>
      <rect id="Retângulo_277" data-name="Retângulo 277" width="12.778" height="12.511" transform="matrix(0.988, -0.155, 0.155, 0.988, 1221.117, 429.161)" fill="#fff"/>
      <rect id="Retângulo_278" data-name="Retângulo 278" width="12.778" height="12.511" transform="matrix(0.988, -0.155, 0.155, 0.988, 1235.899, 426.847)" fill="#fff"/>
      <rect id="Retângulo_279" data-name="Retângulo 279" width="12.778" height="12.511" transform="matrix(0.988, -0.155, 0.155, 0.988, 1250.681, 424.534)" fill="#fff"/>
      <rect id="Retângulo_280" data-name="Retângulo 280" width="12.778" height="12.511" transform="matrix(0.988, -0.155, 0.155, 0.988, 1265.463, 422.22)" fill="#fff"/>
      <rect id="Retângulo_281" data-name="Retângulo 281" width="12.778" height="12.511" transform="matrix(0.988, -0.155, 0.155, 0.988, 1280.244, 419.907)" fill="#fff"/>
      <rect id="Retângulo_282" data-name="Retângulo 282" width="12.778" height="12.511" transform="matrix(0.988, -0.155, 0.155, 0.988, 1295.026, 417.594)" fill="#fff"/>
      <rect id="Retângulo_283" data-name="Retângulo 283" width="12.778" height="12.511" transform="matrix(0.988, -0.155, 0.155, 0.988, 1309.808, 415.28)" fill="#fff"/>
      <rect id="Retângulo_284" data-name="Retângulo 284" width="12.778" height="12.511" transform="matrix(0.988, -0.155, 0.155, 0.988, 1324.59, 412.967)" fill="#fff"/>
      <rect id="Retângulo_285" data-name="Retângulo 285" width="12.778" height="12.511" transform="matrix(0.988, -0.155, 0.155, 0.988, 1339.65, 410.61)" fill="#fff"/>
      <rect id="Retângulo_286" data-name="Retângulo 286" width="12.778" height="12.511" transform="matrix(0.988, -0.155, 0.155, 0.988, 1229.448, 456.342)" fill="#fff"/>
      <rect id="Retângulo_287" data-name="Retângulo 287" width="12.778" height="12.511" transform="matrix(0.988, -0.155, 0.155, 0.988, 1244.23, 454.028)" fill="#fff"/>
      <rect id="Retângulo_288" data-name="Retângulo 288" width="12.778" height="12.511" transform="matrix(0.988, -0.155, 0.155, 0.988, 1259.012, 451.715)" fill="#fff"/>
      <rect id="Retângulo_289" data-name="Retângulo 289" width="12.778" height="12.511" transform="matrix(0.988, -0.155, 0.155, 0.988, 1273.794, 449.401)" fill="#fff"/>
      <rect id="Retângulo_290" data-name="Retângulo 290" width="12.778" height="12.511" transform="matrix(0.988, -0.155, 0.155, 0.988, 1288.575, 447.088)" fill="#fff"/>
      <rect id="Retângulo_291" data-name="Retângulo 291" width="12.778" height="12.511" transform="matrix(0.988, -0.155, 0.155, 0.988, 1303.357, 444.775)" fill="#fff"/>
      <rect id="Retângulo_292" data-name="Retângulo 292" width="12.778" height="12.511" transform="matrix(0.988, -0.155, 0.155, 0.988, 1318.139, 442.461)" fill="#fff"/>
      <rect id="Retângulo_293" data-name="Retângulo 293" width="12.778" height="12.511" transform="matrix(0.988, -0.155, 0.155, 0.988, 1332.921, 440.148)" fill="#fff"/>
      <rect id="Retângulo_294" data-name="Retângulo 294" width="12.778" height="12.511" transform="matrix(0.988, -0.155, 0.155, 0.988, 1347.703, 437.834)" fill="#fff"/>
      <rect id="Retângulo_295" data-name="Retângulo 295" width="12.778" height="12.511" transform="matrix(0.988, -0.155, 0.155, 0.988, 1362.381, 435.537)" fill="#fff"/>
      <rect id="Retângulo_296" data-name="Retângulo 296" width="16.955" height="12.511" transform="matrix(0.988, -0.155, 0.155, 0.988, 1332.219, 468.819)" fill="#fff"/>
      <rect id="Retângulo_297" data-name="Retângulo 297" width="12.778" height="12.511" transform="matrix(0.988, -0.155, 0.155, 0.988, 1351.267, 465.838)" fill="#fff"/>
      <rect id="Retângulo_298" data-name="Retângulo 298" width="12.778" height="12.511" transform="matrix(0.988, -0.155, 0.155, 0.988, 1377.9, 461.67)" fill="#fff"/>
      <rect id="Retângulo_299" data-name="Retângulo 299" width="32.896" height="12.511" transform="matrix(0.988, -0.155, 0.155, 0.988, 1355.842, 450.841)" fill="#fff"/>
      <rect id="Retângulo_300" data-name="Retângulo 300" width="27.531" height="12.511" transform="matrix(0.988, -0.155, 0.155, 0.988, 1354.598, 408.193)" fill="#fff"/>
      <path id="Caminho_22" data-name="Caminho 22" d="M1383.979,417.876l4.314,26.312-9.37,1.466-2.17-13.868-7.3,1.143-1.952-12.474Z" fill="#fff"/>
      <rect id="Retângulo_301" data-name="Retângulo 301" width="12.778" height="5.753" transform="matrix(0.988, -0.155, 0.155, 0.988, 1364.546, 463.76)" fill="#fff"/>
      <rect id="Retângulo_302" data-name="Retângulo 302" width="12.778" height="5.789" transform="matrix(0.988, -0.155, 0.155, 0.988, 1365.588, 470.423)" fill="#fff"/>
      <rect id="Retângulo_303" data-name="Retângulo 303" width="102.145" height="12.511" transform="matrix(0.988, -0.155, 0.155, 0.988, 1229.129, 484.954)" fill="#fff"/>
    </g>
    <g id="Elipse" transform="translate(0 -66.848)">
      <circle id="Elipse_19" data-name="Elipse 19" cx="12.687" cy="12.687" r="12.687" transform="translate(1220.4 520.415)" fill="#fff"/>
      <circle id="Elipse_20" data-name="Elipse 20" cx="12.687" cy="12.687" r="12.687" transform="translate(1160.579 302.738)" fill="#fff"/>
      <circle id="Elipse_21" data-name="Elipse 21" cx="5.97" cy="5.97" r="5.97" transform="translate(1437.564 452.504)" fill="#fff"/>
      <circle id="Elipse_22" data-name="Elipse 22" cx="5.97" cy="5.97" r="5.97" transform="translate(662.959 570.617)" fill="#fff"/>
    </g>
    <g id="Box_infos" data-name="Box infos" transform="translate(0 -66.848)">
      <g id="Box_infos-2" data-name="Box infos">
        <g transform="matrix(1, 0, 0, 1, 506.6, 285.85)" filter="url(#Retângulo_305)">
          <rect id="Retângulo_305-2" data-name="Retângulo 305" width="314.79" height="103.814" rx="32.63" transform="translate(544.46 324.86)" fill="#fff"/>
        </g>
        <path id="Caminho_26" data-name="Caminho 26" d="M7.225-1.65a4.425,4.425,0,0,0,1.631-.288,3.658,3.658,0,0,0,1.25-.8,3.537,3.537,0,0,0,.8-1.213,4.053,4.053,0,0,0,.281-1.525,4.327,4.327,0,0,0-.275-1.581,3.347,3.347,0,0,0-.781-1.2,3.428,3.428,0,0,0-1.206-.756,4.347,4.347,0,0,0-1.537-.262,4.138,4.138,0,0,0-1.625.306,3.717,3.717,0,0,0-1.231.825,3.583,3.583,0,0,0-.775,1.2,3.832,3.832,0,0,0-.269,1.419,4.731,4.731,0,0,0,.25,1.575,3.417,3.417,0,0,0,.731,1.225,3.275,3.275,0,0,0,1.175.794A4.18,4.18,0,0,0,7.225-1.65Zm-1.3-9.55q-.237.3-.456.581t-.419.556a5.181,5.181,0,0,1,1.4-.675,5.566,5.566,0,0,1,1.663-.238,5.858,5.858,0,0,1,2.05.356,4.874,4.874,0,0,1,1.681,1.037,4.961,4.961,0,0,1,1.144,1.675,5.722,5.722,0,0,1,.425,2.269,5.836,5.836,0,0,1-.45,2.3,5.622,5.622,0,0,1-1.256,1.85A5.808,5.808,0,0,1,9.769-.25,6.69,6.69,0,0,1,7.275.2a6.662,6.662,0,0,1-2.45-.431A5.209,5.209,0,0,1,2.956-1.456,5.441,5.441,0,0,1,1.769-3.381,7.249,7.249,0,0,1,1.35-5.912a6.918,6.918,0,0,1,.519-2.506,12.205,12.205,0,0,1,1.656-2.844l4.55-6.112a1.406,1.406,0,0,1,.481-.381,1.533,1.533,0,0,1,.706-.156h1.975Zm23.6,5.5a18.546,18.546,0,0,0-2.619.244,7.447,7.447,0,0,0-1.763.506,2.433,2.433,0,0,0-.987.737,1.587,1.587,0,0,0-.306.95,2.1,2.1,0,0,0,.162.862,1.6,1.6,0,0,0,.444.594,1.782,1.782,0,0,0,.663.337,3.039,3.039,0,0,0,.819.106,4.542,4.542,0,0,0,1.075-.119,4.05,4.05,0,0,0,.919-.344,5.18,5.18,0,0,0,.825-.538,7.147,7.147,0,0,0,.769-.713Zm-7.187-5.175A7.231,7.231,0,0,1,24.6-12.387a6.986,6.986,0,0,1,2.687-.5,4.8,4.8,0,0,1,1.888.35,3.871,3.871,0,0,1,1.388.975,4.129,4.129,0,0,1,.85,1.512A6.3,6.3,0,0,1,31.7-8.1V0h-.988a.97.97,0,0,1-.5-.106.724.724,0,0,1-.275-.419l-.25-1.2a12.407,12.407,0,0,1-.975.819,5.58,5.58,0,0,1-1,.6,5.432,5.432,0,0,1-1.119.375A6.121,6.121,0,0,1,25.275.2a4.562,4.562,0,0,1-1.388-.206,3.205,3.205,0,0,1-1.131-.619,2.91,2.91,0,0,1-.763-1.044,3.647,3.647,0,0,1-.281-1.494,2.786,2.786,0,0,1,.413-1.444,3.615,3.615,0,0,1,1.337-1.231,8.772,8.772,0,0,1,2.413-.881,18.4,18.4,0,0,1,3.65-.394V-8.1a3.385,3.385,0,0,0-.637-2.231,2.3,2.3,0,0,0-1.863-.756,4,4,0,0,0-1.381.206,5.181,5.181,0,0,0-.962.462q-.406.256-.7.463a1.01,1.01,0,0,1-.581.206.639.639,0,0,1-.388-.119,1.09,1.09,0,0,1-.275-.294Zm14.85.05a7.513,7.513,0,0,1,.875-.838,5.768,5.768,0,0,1,.981-.644,4.982,4.982,0,0,1,1.1-.413,5.223,5.223,0,0,1,1.256-.144,4.572,4.572,0,0,1,1.831.344,3.543,3.543,0,0,1,1.325.975,4.306,4.306,0,0,1,.806,1.519,6.609,6.609,0,0,1,.275,1.962V0H43.4V-8.062a3.408,3.408,0,0,0-.656-2.231,2.438,2.438,0,0,0-1.994-.794,3.74,3.74,0,0,0-1.844.475,6.072,6.072,0,0,0-1.581,1.287V0H35.088V-12.663h1.337a.549.549,0,0,1,.588.463Zm17.188-2.038a6.457,6.457,0,0,1,2.5.463,5.357,5.357,0,0,1,1.9,1.312,5.761,5.761,0,0,1,1.206,2.056A8.176,8.176,0,0,1,60.4-6.338a8.161,8.161,0,0,1-.419,2.7,5.77,5.77,0,0,1-1.206,2.05,5.29,5.29,0,0,1-1.9,1.306,6.535,6.535,0,0,1-2.5.456,6.617,6.617,0,0,1-2.519-.456A5.278,5.278,0,0,1,49.95-1.588a5.77,5.77,0,0,1-1.206-2.05,8.161,8.161,0,0,1-.419-2.7,8.176,8.176,0,0,1,.419-2.694,5.761,5.761,0,0,1,1.206-2.056A5.345,5.345,0,0,1,51.856-12.4,6.538,6.538,0,0,1,54.375-12.863Zm0,11.3a3.251,3.251,0,0,0,2.8-1.256A5.817,5.817,0,0,0,58.1-6.325a5.87,5.87,0,0,0-.925-3.525,3.244,3.244,0,0,0-2.8-1.263,3.929,3.929,0,0,0-1.656.325,3.077,3.077,0,0,0-1.175.938,4.164,4.164,0,0,0-.7,1.506,8.074,8.074,0,0,0-.231,2.019,5.788,5.788,0,0,0,.931,3.506A3.3,3.3,0,0,0,54.375-1.562Zm16.213-9.012a.493.493,0,0,1-.463.275.87.87,0,0,1-.425-.137q-.237-.137-.581-.306a5.459,5.459,0,0,0-.819-.313,3.906,3.906,0,0,0-1.125-.144,3.32,3.32,0,0,0-1.013.144,2.431,2.431,0,0,0-.769.394,1.742,1.742,0,0,0-.488.581,1.561,1.561,0,0,0-.169.719,1.2,1.2,0,0,0,.281.813,2.444,2.444,0,0,0,.744.563,6.484,6.484,0,0,0,1.05.419q.588.181,1.206.387t1.206.456a4.377,4.377,0,0,1,1.05.625,2.859,2.859,0,0,1,.744.919A2.812,2.812,0,0,1,71.3-3.875a4.137,4.137,0,0,1-.312,1.619,3.532,3.532,0,0,1-.925,1.287,4.46,4.46,0,0,1-1.5.856A6.163,6.163,0,0,1,66.512.2a6.4,6.4,0,0,1-2.4-.431,6.081,6.081,0,0,1-1.825-1.106l.525-.85a.763.763,0,0,1,.237-.25.641.641,0,0,1,.35-.088.838.838,0,0,1,.475.175q.25.175.606.387a4.613,4.613,0,0,0,.869.388,3.99,3.99,0,0,0,1.275.175,3.478,3.478,0,0,0,1.137-.169,2.389,2.389,0,0,0,.813-.456,1.807,1.807,0,0,0,.481-.662,2.059,2.059,0,0,0,.156-.8,1.327,1.327,0,0,0-.281-.869,2.374,2.374,0,0,0-.744-.587,6.061,6.061,0,0,0-1.056-.425q-.594-.181-1.213-.381t-1.212-.456A4.262,4.262,0,0,1,63.65-6.85a2.916,2.916,0,0,1-.744-.956,3.092,3.092,0,0,1-.281-1.381,3.369,3.369,0,0,1,.3-1.394,3.418,3.418,0,0,1,.875-1.175,4.309,4.309,0,0,1,1.413-.806,5.653,5.653,0,0,1,1.912-.3,6.049,6.049,0,0,1,2.244.394,5.31,5.31,0,0,1,1.719,1.081Zm18.1.925a3.6,3.6,0,0,0-1.35-1.169,3.866,3.866,0,0,0-1.625-.331A3.192,3.192,0,0,0,83-9.887a5.9,5.9,0,0,0-.95,3.6,9.154,9.154,0,0,0,.213,2.119,4.077,4.077,0,0,0,.625,1.45,2.456,2.456,0,0,0,1.012.831,3.368,3.368,0,0,0,1.363.262,3.608,3.608,0,0,0,1.919-.5,5.5,5.5,0,0,0,1.506-1.412Zm2.225-8.762V0H89.588a.567.567,0,0,1-.6-.463L88.788-2a6.894,6.894,0,0,1-1.85,1.575,4.707,4.707,0,0,1-2.4.6,4.571,4.571,0,0,1-1.975-.419A4.1,4.1,0,0,1,81.05-1.475,5.865,5.865,0,0,1,80.088-3.5a10.425,10.425,0,0,1-.338-2.788,8.737,8.737,0,0,1,.375-2.606A6.421,6.421,0,0,1,81.2-10.988a4.989,4.989,0,0,1,1.719-1.394,5.084,5.084,0,0,1,2.294-.506,4.624,4.624,0,0,1,1.994.394A4.832,4.832,0,0,1,88.688-11.4v-7.013Zm12,10.7a4.387,4.387,0,0,0-.219-1.419,3.186,3.186,0,0,0-.638-1.113,2.844,2.844,0,0,0-1.019-.725,3.439,3.439,0,0,0-1.363-.256,3.42,3.42,0,0,0-2.531.931,4.363,4.363,0,0,0-1.156,2.581Zm1.8,5.937a4.226,4.226,0,0,1-.987.869,6.149,6.149,0,0,1-1.231.606,7.82,7.82,0,0,1-1.356.356A8.284,8.284,0,0,1,99.75.175a6.439,6.439,0,0,1-2.419-.444,5.309,5.309,0,0,1-1.912-1.3,5.964,5.964,0,0,1-1.256-2.119,8.616,8.616,0,0,1-.45-2.9,7.378,7.378,0,0,1,.406-2.475,5.834,5.834,0,0,1,1.169-1.994,5.38,5.38,0,0,1,1.862-1.325,6.114,6.114,0,0,1,2.475-.481,5.7,5.7,0,0,1,2.106.381,4.764,4.764,0,0,1,1.675,1.1,5.039,5.039,0,0,1,1.106,1.775,6.761,6.761,0,0,1,.4,2.406,1.451,1.451,0,0,1-.113.7.467.467,0,0,1-.425.175H95.913a7.4,7.4,0,0,0,.331,2.088,4.193,4.193,0,0,0,.819,1.481,3.306,3.306,0,0,0,1.25.888,4.293,4.293,0,0,0,1.625.294,4.767,4.767,0,0,0,1.444-.194,6.869,6.869,0,0,0,1.044-.419,7.962,7.962,0,0,0,.731-.419.969.969,0,0,1,.506-.194.49.49,0,0,1,.425.213Zm17.8-5.937a4.387,4.387,0,0,0-.219-1.419,3.186,3.186,0,0,0-.638-1.113,2.844,2.844,0,0,0-1.019-.725,3.439,3.439,0,0,0-1.363-.256,3.42,3.42,0,0,0-2.531.931,4.363,4.363,0,0,0-1.156,2.581Zm1.8,5.937a4.226,4.226,0,0,1-.987.869,6.149,6.149,0,0,1-1.231.606,7.82,7.82,0,0,1-1.356.356,8.284,8.284,0,0,1-1.388.119,6.439,6.439,0,0,1-2.419-.444,5.309,5.309,0,0,1-1.912-1.3,5.964,5.964,0,0,1-1.256-2.119,8.616,8.616,0,0,1-.45-2.9,7.378,7.378,0,0,1,.406-2.475,5.834,5.834,0,0,1,1.169-1.994,5.38,5.38,0,0,1,1.862-1.325,6.114,6.114,0,0,1,2.475-.481,5.7,5.7,0,0,1,2.106.381,4.764,4.764,0,0,1,1.675,1.1,5.039,5.039,0,0,1,1.106,1.775,6.761,6.761,0,0,1,.4,2.406,1.451,1.451,0,0,1-.112.7.467.467,0,0,1-.425.175h-8.462a7.4,7.4,0,0,0,.331,2.088,4.193,4.193,0,0,0,.819,1.481,3.306,3.306,0,0,0,1.25.888,4.293,4.293,0,0,0,1.625.294,4.767,4.767,0,0,0,1.444-.194,6.869,6.869,0,0,0,1.044-.419,7.963,7.963,0,0,0,.731-.419.969.969,0,0,1,.506-.194.49.49,0,0,1,.425.213ZM137.475,0h-2.138a.613.613,0,0,1-.431-.144,1.326,1.326,0,0,1-.256-.319l-3.187-4.962q-.05.175-.106.344a1.118,1.118,0,0,1-.156.306L128.25-.463a2.524,2.524,0,0,1-.269.319.532.532,0,0,1-.394.144H125.6l4.438-6.5-4.263-6.163h2.137a.711.711,0,0,1,.4.087.829.829,0,0,1,.225.25l3.112,4.75a2.616,2.616,0,0,1,.313-.7l2.725-4a1.174,1.174,0,0,1,.244-.281.49.49,0,0,1,.319-.106h2.05l-4.262,6.05Zm4.287-3.05A3.6,3.6,0,0,0,143.1-1.887a3.8,3.8,0,0,0,1.625.337,3.2,3.2,0,0,0,2.725-1.263,5.9,5.9,0,0,0,.95-3.6,8.983,8.983,0,0,0-.219-2.125,4.155,4.155,0,0,0-.631-1.456,2.456,2.456,0,0,0-1.013-.831,3.368,3.368,0,0,0-1.362-.263,3.584,3.584,0,0,0-1.906.5,5.5,5.5,0,0,0-1.506,1.412Zm-.113-7.65a6.56,6.56,0,0,1,1.85-1.587,4.751,4.751,0,0,1,2.4-.6,4.6,4.6,0,0,1,1.988.419,4.072,4.072,0,0,1,1.512,1.237,5.935,5.935,0,0,1,.963,2.031,10.426,10.426,0,0,1,.337,2.787,8.737,8.737,0,0,1-.375,2.606,6.279,6.279,0,0,1-1.081,2.088,5.082,5.082,0,0,1-1.725,1.388,5.084,5.084,0,0,1-2.294.506,4.624,4.624,0,0,1-1.994-.394,4.685,4.685,0,0,1-1.469-1.094v5.6h-2.238v-16.95h1.338a.549.549,0,0,1,.587.463Zm20.363,2.988a4.387,4.387,0,0,0-.219-1.419,3.186,3.186,0,0,0-.637-1.113,2.844,2.844,0,0,0-1.019-.725,3.439,3.439,0,0,0-1.363-.256,3.42,3.42,0,0,0-2.531.931,4.363,4.363,0,0,0-1.156,2.581Zm1.8,5.937a4.226,4.226,0,0,1-.988.869,6.149,6.149,0,0,1-1.231.606,7.82,7.82,0,0,1-1.356.356,8.284,8.284,0,0,1-1.387.119,6.439,6.439,0,0,1-2.419-.444,5.309,5.309,0,0,1-1.913-1.3,5.964,5.964,0,0,1-1.256-2.119,8.616,8.616,0,0,1-.45-2.9,7.378,7.378,0,0,1,.406-2.475,5.834,5.834,0,0,1,1.169-1.994,5.38,5.38,0,0,1,1.863-1.325,6.114,6.114,0,0,1,2.475-.481,5.7,5.7,0,0,1,2.106.381,4.764,4.764,0,0,1,1.675,1.1,5.039,5.039,0,0,1,1.106,1.775,6.76,6.76,0,0,1,.4,2.406,1.451,1.451,0,0,1-.113.7.467.467,0,0,1-.425.175h-8.462a7.4,7.4,0,0,0,.331,2.088,4.193,4.193,0,0,0,.819,1.481,3.306,3.306,0,0,0,1.25.888,4.293,4.293,0,0,0,1.625.294,4.767,4.767,0,0,0,1.444-.194,6.869,6.869,0,0,0,1.044-.419,7.961,7.961,0,0,0,.731-.419.969.969,0,0,1,.506-.194.49.49,0,0,1,.425.213Zm5.038-8.35a5.71,5.71,0,0,1,1.475-2.031,3.222,3.222,0,0,1,2.137-.731,3.319,3.319,0,0,1,.769.087,2.062,2.062,0,0,1,.656.275l-.163,1.662a.358.358,0,0,1-.375.313,2.581,2.581,0,0,1-.512-.075,3.529,3.529,0,0,0-.762-.075,3.042,3.042,0,0,0-1.069.175,2.5,2.5,0,0,0-.837.519,3.666,3.666,0,0,0-.663.85A7.287,7.287,0,0,0,168.975-8V0h-2.238V-12.663h1.275a.7.7,0,0,1,.5.138.843.843,0,0,1,.188.475Zm9.337-2.538V0h-2.225V-12.663Zm.475-3.975a1.416,1.416,0,0,1-.131.606,1.746,1.746,0,0,1-.35.5,1.606,1.606,0,0,1-.512.344,1.564,1.564,0,0,1-.619.125,1.476,1.476,0,0,1-.606-.125,1.572,1.572,0,0,1-.494-.344,1.706,1.706,0,0,1-.337-.5,1.476,1.476,0,0,1-.125-.606,1.564,1.564,0,0,1,.125-.619,1.661,1.661,0,0,1,.337-.512,1.572,1.572,0,0,1,.494-.344,1.476,1.476,0,0,1,.606-.125,1.564,1.564,0,0,1,.619.125,1.606,1.606,0,0,1,.512.344,1.7,1.7,0,0,1,.35.512A1.5,1.5,0,0,1,178.662-16.637Zm11.65,8.925a4.387,4.387,0,0,0-.219-1.419,3.186,3.186,0,0,0-.637-1.113,2.844,2.844,0,0,0-1.019-.725,3.439,3.439,0,0,0-1.363-.256,3.42,3.42,0,0,0-2.531.931,4.363,4.363,0,0,0-1.156,2.581Zm1.8,5.937a4.226,4.226,0,0,1-.988.869,6.149,6.149,0,0,1-1.231.606,7.82,7.82,0,0,1-1.356.356,8.284,8.284,0,0,1-1.387.119,6.439,6.439,0,0,1-2.419-.444,5.309,5.309,0,0,1-1.913-1.3,5.964,5.964,0,0,1-1.256-2.119,8.616,8.616,0,0,1-.45-2.9,7.378,7.378,0,0,1,.406-2.475,5.834,5.834,0,0,1,1.169-1.994,5.38,5.38,0,0,1,1.863-1.325,6.114,6.114,0,0,1,2.475-.481,5.7,5.7,0,0,1,2.106.381,4.764,4.764,0,0,1,1.675,1.1,5.039,5.039,0,0,1,1.106,1.775,6.76,6.76,0,0,1,.4,2.406,1.451,1.451,0,0,1-.113.7.467.467,0,0,1-.425.175h-8.462a7.4,7.4,0,0,0,.331,2.088,4.193,4.193,0,0,0,.819,1.481,3.306,3.306,0,0,0,1.25.888,4.293,4.293,0,0,0,1.625.294,4.767,4.767,0,0,0,1.444-.194,6.869,6.869,0,0,0,1.044-.419,7.961,7.961,0,0,0,.731-.419.969.969,0,0,1,.506-.194.49.49,0,0,1,.425.213ZM190.9-14.613h-1.488a.853.853,0,0,1-.281-.05.756.756,0,0,1-.281-.187l-1.537-1.65a1.119,1.119,0,0,1-.2-.237,1.523,1.523,0,0,0-.113.125,1.364,1.364,0,0,1-.1.112l-1.55,1.65a.826.826,0,0,1-.562.237H183.25l2.787-3.3h2.075Zm6.238,3.788a7.512,7.512,0,0,1,.875-.838,5.768,5.768,0,0,1,.981-.644,4.982,4.982,0,0,1,1.1-.413,5.223,5.223,0,0,1,1.256-.144,4.572,4.572,0,0,1,1.831.344,3.543,3.543,0,0,1,1.325.975,4.306,4.306,0,0,1,.806,1.519,6.609,6.609,0,0,1,.275,1.962V0H203.35V-8.062a3.408,3.408,0,0,0-.656-2.231,2.438,2.438,0,0,0-1.994-.794,3.74,3.74,0,0,0-1.844.475,6.072,6.072,0,0,0-1.581,1.287V0h-2.238V-12.663h1.338a.549.549,0,0,1,.587.463Zm20.663.412a.993.993,0,0,1-.2.213.449.449,0,0,1-.275.075.742.742,0,0,1-.413-.156q-.225-.156-.556-.344a4.45,4.45,0,0,0-.812-.344,3.864,3.864,0,0,0-1.181-.156,3.875,3.875,0,0,0-1.65.331,3.176,3.176,0,0,0-1.194.956,4.327,4.327,0,0,0-.725,1.512,7.5,7.5,0,0,0-.244,1.987,7.261,7.261,0,0,0,.262,2.044,4.361,4.361,0,0,0,.744,1.5,3.2,3.2,0,0,0,1.162.925,3.57,3.57,0,0,0,1.531.319,3.914,3.914,0,0,0,1.338-.194,3.921,3.921,0,0,0,.869-.431q.344-.238.575-.431a.716.716,0,0,1,.456-.194.49.49,0,0,1,.425.213l.625.813A4.434,4.434,0,0,1,217.6-.9a5.775,5.775,0,0,1-1.131.606A6.151,6.151,0,0,1,215.2.063a8.05,8.05,0,0,1-1.35.113,5.531,5.531,0,0,1-2.206-.437,5.03,5.03,0,0,1-1.769-1.269A5.941,5.941,0,0,1,208.7-3.575a8.326,8.326,0,0,1-.425-2.763,8.336,8.336,0,0,1,.394-2.612,5.919,5.919,0,0,1,1.15-2.069,5.225,5.225,0,0,1,1.863-1.356,6.254,6.254,0,0,1,2.544-.488,6,6,0,0,1,2.356.431,5.643,5.643,0,0,1,1.806,1.219Zm5.475-2.25V0H221.05V-12.663Zm.475-3.975a1.416,1.416,0,0,1-.131.606,1.746,1.746,0,0,1-.35.5,1.606,1.606,0,0,1-.512.344,1.564,1.564,0,0,1-.619.125,1.476,1.476,0,0,1-.606-.125,1.572,1.572,0,0,1-.494-.344,1.706,1.706,0,0,1-.337-.5,1.476,1.476,0,0,1-.125-.606,1.564,1.564,0,0,1,.125-.619,1.661,1.661,0,0,1,.337-.512,1.572,1.572,0,0,1,.494-.344,1.476,1.476,0,0,1,.606-.125,1.564,1.564,0,0,1,.619.125,1.606,1.606,0,0,1,.512.344,1.7,1.7,0,0,1,.35.512A1.5,1.5,0,0,1,223.75-16.637ZM233.788-5.7a18.545,18.545,0,0,0-2.619.244,7.447,7.447,0,0,0-1.763.506,2.433,2.433,0,0,0-.987.737,1.586,1.586,0,0,0-.306.95,2.1,2.1,0,0,0,.163.862,1.6,1.6,0,0,0,.444.594,1.782,1.782,0,0,0,.663.337,3.039,3.039,0,0,0,.819.106,4.542,4.542,0,0,0,1.075-.119,4.05,4.05,0,0,0,.919-.344,5.181,5.181,0,0,0,.825-.538,7.148,7.148,0,0,0,.769-.713ZM226.6-10.875a7.231,7.231,0,0,1,2.262-1.512,6.986,6.986,0,0,1,2.688-.5,4.8,4.8,0,0,1,1.887.35,3.871,3.871,0,0,1,1.388.975,4.129,4.129,0,0,1,.85,1.512,6.3,6.3,0,0,1,.288,1.95V0h-.988a.97.97,0,0,1-.5-.106.724.724,0,0,1-.275-.419l-.25-1.2a12.407,12.407,0,0,1-.975.819,5.58,5.58,0,0,1-1,.6,5.432,5.432,0,0,1-1.119.375A6.121,6.121,0,0,1,229.538.2a4.562,4.562,0,0,1-1.387-.206,3.205,3.205,0,0,1-1.131-.619,2.91,2.91,0,0,1-.762-1.044,3.647,3.647,0,0,1-.281-1.494,2.786,2.786,0,0,1,.413-1.444,3.615,3.615,0,0,1,1.337-1.231,8.773,8.773,0,0,1,2.413-.881,18.4,18.4,0,0,1,3.65-.394V-8.1a3.385,3.385,0,0,0-.637-2.231,2.3,2.3,0,0,0-1.863-.756,4,4,0,0,0-1.381.206,5.181,5.181,0,0,0-.962.462q-.406.256-.7.463a1.01,1.01,0,0,1-.581.206.639.639,0,0,1-.387-.119,1.089,1.089,0,0,1-.275-.294Z" transform="translate(1088.866 689.335)" fill="#545f75"/>
        <path id="Caminho_25" data-name="Caminho 25" d="M17.813-8.95a10.087,10.087,0,0,1-.638,3.662,8.122,8.122,0,0,1-1.8,2.825A8.013,8.013,0,0,1,12.581-.644,9.744,9.744,0,0,1,8.975,0H2.287V-17.913H8.975a9.744,9.744,0,0,1,3.606.644,7.969,7.969,0,0,1,2.794,1.825,8.188,8.188,0,0,1,1.8,2.831A10.087,10.087,0,0,1,17.813-8.95Zm-2.488,0a8.99,8.99,0,0,0-.45-2.95A6.217,6.217,0,0,0,13.6-14.1a5.438,5.438,0,0,0-2-1.375,6.947,6.947,0,0,0-2.625-.475H4.713V-1.963H8.975A6.947,6.947,0,0,0,11.6-2.437a5.473,5.473,0,0,0,2-1.369A6.153,6.153,0,0,0,14.875-6,8.99,8.99,0,0,0,15.325-8.95Zm13.75,1.238a4.387,4.387,0,0,0-.219-1.419,3.186,3.186,0,0,0-.638-1.113,2.844,2.844,0,0,0-1.019-.725,3.439,3.439,0,0,0-1.363-.256,3.42,3.42,0,0,0-2.531.931A4.363,4.363,0,0,0,22.15-7.712Zm1.8,5.937a4.226,4.226,0,0,1-.987.869A6.149,6.149,0,0,1,28.656-.3,7.82,7.82,0,0,1,27.3.056a8.284,8.284,0,0,1-1.388.119,6.439,6.439,0,0,1-2.419-.444,5.309,5.309,0,0,1-1.913-1.3,5.964,5.964,0,0,1-1.256-2.119,8.616,8.616,0,0,1-.45-2.9,7.378,7.378,0,0,1,.406-2.475,5.834,5.834,0,0,1,1.169-1.994,5.38,5.38,0,0,1,1.862-1.325,6.114,6.114,0,0,1,2.475-.481,5.7,5.7,0,0,1,2.106.381,4.764,4.764,0,0,1,1.675,1.1,5.039,5.039,0,0,1,1.106,1.775,6.761,6.761,0,0,1,.4,2.406,1.451,1.451,0,0,1-.112.7.467.467,0,0,1-.425.175H22.075a7.4,7.4,0,0,0,.331,2.088,4.193,4.193,0,0,0,.819,1.481,3.306,3.306,0,0,0,1.25.888,4.293,4.293,0,0,0,1.625.294,4.767,4.767,0,0,0,1.444-.194,6.869,6.869,0,0,0,1.044-.419,7.962,7.962,0,0,0,.731-.419.969.969,0,0,1,.506-.194.49.49,0,0,1,.425.213Zm13.5-10.888L39.213,0h-2L32.05-12.663h1.813a.707.707,0,0,1,.45.138.688.688,0,0,1,.237.325l3.213,8.15q.15.463.263.9t.212.875q.1-.438.213-.875t.275-.9l3.25-8.15a.725.725,0,0,1,.25-.331.668.668,0,0,1,.412-.131Zm.838,11.288a1.588,1.588,0,0,1,.119-.612,1.571,1.571,0,0,1,.325-.5,1.529,1.529,0,0,1,.494-.338,1.519,1.519,0,0,1,.612-.125,1.519,1.519,0,0,1,.612.125,1.6,1.6,0,0,1,.5.338,1.6,1.6,0,0,1,.338.5,1.519,1.519,0,0,1,.125.612,1.506,1.506,0,0,1-.125.619,1.625,1.625,0,0,1-.338.494,1.519,1.519,0,0,1-.5.331,1.588,1.588,0,0,1-.612.119A1.588,1.588,0,0,1,46.15.069a1.451,1.451,0,0,1-.494-.331,1.589,1.589,0,0,1-.325-.494A1.575,1.575,0,0,1,45.213-1.375ZM60.838-15.937v6.262H68.2V-7.7H60.838V0H58.412V-17.913H69.45v1.975ZM81.5-12.663V0H80.175a.567.567,0,0,1-.6-.463L79.4-1.825A6.965,6.965,0,0,1,77.55-.356,4.848,4.848,0,0,1,75.2.2a4.572,4.572,0,0,1-1.831-.344,3.63,3.63,0,0,1-1.331-.969,4.114,4.114,0,0,1-.806-1.512,6.752,6.752,0,0,1-.269-1.963v-8.075h2.225v8.075a3.382,3.382,0,0,0,.656,2.225,2.463,2.463,0,0,0,2.006.787,3.779,3.779,0,0,0,1.844-.469,5.856,5.856,0,0,0,1.581-1.294v-9.325Zm5.825-5.75V0H85.1V-18.413Zm5.9,0V0H91V-18.413Zm19.688,3.3a.92.92,0,0,1-.244.281.534.534,0,0,1-.319.094.892.892,0,0,1-.5-.212q-.287-.213-.719-.469a5.782,5.782,0,0,0-1.038-.469,4.464,4.464,0,0,0-1.469-.212,4.287,4.287,0,0,0-1.431.219,3.065,3.065,0,0,0-1.037.594,2.437,2.437,0,0,0-.631.881,2.8,2.8,0,0,0-.213,1.094,2.021,2.021,0,0,0,.369,1.244,3.177,3.177,0,0,0,.975.844,7.469,7.469,0,0,0,1.375.606q.769.256,1.575.531t1.575.619a5.54,5.54,0,0,1,1.375.869,3.96,3.96,0,0,1,.975,1.288,4.285,4.285,0,0,1,.369,1.875,6.047,6.047,0,0,1-.4,2.206,5.086,5.086,0,0,1-1.169,1.794,5.468,5.468,0,0,1-1.888,1.2A6.943,6.943,0,0,1,107.9.2a7.755,7.755,0,0,1-3.175-.631,7.45,7.45,0,0,1-2.437-1.706l.7-1.15a.92.92,0,0,1,.244-.231.571.571,0,0,1,.319-.094.709.709,0,0,1,.369.131q.206.131.469.331t.6.438a4.958,4.958,0,0,0,.769.438,5.2,5.2,0,0,0,.981.331,5.344,5.344,0,0,0,1.237.131,4.618,4.618,0,0,0,1.538-.237,3.265,3.265,0,0,0,1.144-.669,2.9,2.9,0,0,0,.719-1.031,3.446,3.446,0,0,0,.25-1.337,2.244,2.244,0,0,0-.369-1.331,3.057,3.057,0,0,0-.969-.869,6.73,6.73,0,0,0-1.375-.594q-.775-.244-1.575-.5a16.706,16.706,0,0,1-1.575-.594,5.088,5.088,0,0,1-1.375-.875,4.02,4.02,0,0,1-.969-1.344,4.786,4.786,0,0,1-.369-1.994,4.744,4.744,0,0,1,.369-1.838,4.693,4.693,0,0,1,1.075-1.575,5.251,5.251,0,0,1,1.738-1.1,6.342,6.342,0,0,1,2.369-.412,7.532,7.532,0,0,1,2.731.475,6.451,6.451,0,0,1,2.169,1.375ZM120.113.2a3.053,3.053,0,0,1-2.306-.837A3.342,3.342,0,0,1,117-3.05V-10.8h-1.525a.5.5,0,0,1-.337-.119.462.462,0,0,1-.138-.369v-.887l2.075-.263.512-3.913a.544.544,0,0,1,.169-.306.493.493,0,0,1,.344-.119h1.125v4.363h3.663V-10.8h-3.663v7.6a1.617,1.617,0,0,0,.388,1.188,1.353,1.353,0,0,0,1,.388,1.765,1.765,0,0,0,.606-.094,2.6,2.6,0,0,0,.444-.206q.188-.113.319-.206a.417.417,0,0,1,.231-.094.383.383,0,0,1,.313.213l.65,1.063a4.145,4.145,0,0,1-1.388.844A4.711,4.711,0,0,1,120.113.2ZM132.05-5.7a18.545,18.545,0,0,0-2.619.244,7.447,7.447,0,0,0-1.763.506,2.433,2.433,0,0,0-.988.737,1.587,1.587,0,0,0-.306.95,2.1,2.1,0,0,0,.163.862,1.6,1.6,0,0,0,.444.594,1.782,1.782,0,0,0,.662.337,3.039,3.039,0,0,0,.819.106,4.542,4.542,0,0,0,1.075-.119,4.05,4.05,0,0,0,.919-.344,5.181,5.181,0,0,0,.825-.538,7.148,7.148,0,0,0,.769-.713Zm-7.188-5.175a7.231,7.231,0,0,1,2.262-1.512,6.986,6.986,0,0,1,2.688-.5,4.8,4.8,0,0,1,1.887.35,3.871,3.871,0,0,1,1.388.975,4.129,4.129,0,0,1,.85,1.512,6.3,6.3,0,0,1,.288,1.95V0h-.988a.97.97,0,0,1-.5-.106.724.724,0,0,1-.275-.419l-.25-1.2a12.407,12.407,0,0,1-.975.819,5.58,5.58,0,0,1-1,.6,5.432,5.432,0,0,1-1.119.375A6.121,6.121,0,0,1,127.8.2a4.562,4.562,0,0,1-1.387-.206,3.205,3.205,0,0,1-1.131-.619,2.91,2.91,0,0,1-.762-1.044,3.647,3.647,0,0,1-.281-1.494,2.786,2.786,0,0,1,.412-1.444,3.615,3.615,0,0,1,1.338-1.231,8.773,8.773,0,0,1,2.413-.881,18.4,18.4,0,0,1,3.65-.394V-8.1a3.385,3.385,0,0,0-.637-2.231,2.3,2.3,0,0,0-1.863-.756,4,4,0,0,0-1.381.206,5.181,5.181,0,0,0-.962.462q-.406.256-.7.463a1.01,1.01,0,0,1-.581.206.639.639,0,0,1-.387-.119,1.089,1.089,0,0,1-.275-.294Zm21.563.462a.993.993,0,0,1-.2.213.449.449,0,0,1-.275.075.742.742,0,0,1-.413-.156q-.225-.156-.556-.344a4.45,4.45,0,0,0-.812-.344,3.864,3.864,0,0,0-1.181-.156,3.875,3.875,0,0,0-1.65.331,3.176,3.176,0,0,0-1.194.956,4.327,4.327,0,0,0-.725,1.512,7.5,7.5,0,0,0-.244,1.987,7.261,7.261,0,0,0,.262,2.044,4.361,4.361,0,0,0,.744,1.5,3.2,3.2,0,0,0,1.162.925,3.57,3.57,0,0,0,1.531.319,3.914,3.914,0,0,0,1.338-.194,3.921,3.921,0,0,0,.869-.431q.344-.238.575-.431a.716.716,0,0,1,.456-.194.49.49,0,0,1,.425.213l.625.813a4.434,4.434,0,0,1-.937.875,5.775,5.775,0,0,1-1.131.606,6.151,6.151,0,0,1-1.269.356,8.05,8.05,0,0,1-1.35.113,5.531,5.531,0,0,1-2.206-.437A5.03,5.03,0,0,1,138.5-1.531a5.941,5.941,0,0,1-1.175-2.044,8.326,8.326,0,0,1-.425-2.763,8.336,8.336,0,0,1,.394-2.612,5.919,5.919,0,0,1,1.15-2.069,5.225,5.225,0,0,1,1.863-1.356,6.254,6.254,0,0,1,2.544-.488,6,6,0,0,1,2.356.431,5.643,5.643,0,0,1,1.806,1.219Zm5.363-8V-7.575h.575a1.114,1.114,0,0,0,.419-.069,1.017,1.017,0,0,0,.356-.281l4-4.287a1.5,1.5,0,0,1,.369-.331.986.986,0,0,1,.519-.119h2.012L155.375-7.7a2.817,2.817,0,0,1-.725.662,2.3,2.3,0,0,1,.406.344,3.2,3.2,0,0,1,.344.444L160.35,0h-1.988a1.186,1.186,0,0,1-.494-.094.824.824,0,0,1-.356-.344L153.35-5.625a.991.991,0,0,0-.369-.344,1.435,1.435,0,0,0-.556-.081h-.637V0H149.55V-18.413Z" transform="translate(1088.866 652.838)" fill="#545f75"/>
      </g>
    </g>
    <g id="Servidor" transform="translate(0 -66.848)">
      <circle id="Sombra_servidor" data-name="Sombra servidor" cx="69.293" cy="69.293" r="69.293" transform="translate(508.563 524.511)" opacity="0.15" fill="url(#radial-gradient-4)"/>
      <rect id="Box_base" data-name="Box base" width="102.985" height="31.343" transform="matrix(0.994, 0.111, -0.111, 0.994, 510.072, 597.871)" fill="#fff"/>
      <rect id="linha" width="31.167" height="9.486" transform="matrix(0.994, 0.111, -0.111, 0.994, 521.972, 610.193)" fill="#eef2f6"/>
      <g id="circulos">
        <rect id="Retângulo_308" data-name="Retângulo 308" width="8.113" height="8.821" transform="matrix(0.994, 0.111, -0.111, 0.994, 568.412, 615.366)" fill="#eef2f6"/>
        <rect id="Retângulo_309" data-name="Retângulo 309" width="8.113" height="8.821" transform="matrix(0.994, 0.111, -0.111, 0.994, 578.872, 616.531)" fill="#eef2f6"/>
        <rect id="Retângulo_310" data-name="Retângulo 310" width="8.113" height="8.821" transform="matrix(0.994, 0.111, -0.111, 0.994, 589.332, 617.696)" fill="#eef2f6"/>
      </g>
      <rect id="Box_entre" data-name="Box entre" width="84.069" height="8.769" transform="matrix(0.994, 0.111, -0.111, 0.994, 520.159, 592.747)" fill="#fff"/>
      <rect id="Box_base-2" data-name="Box base" width="102.985" height="31.343" transform="matrix(0.994, 0.111, -0.111, 0.994, 513.935, 563.188)" fill="#fff"/>
      <rect id="linha-2" data-name="linha" width="31.167" height="9.486" transform="matrix(0.994, 0.111, -0.111, 0.994, 525.836, 575.51)" fill="#eef2f6"/>
      <g id="circulos-2" data-name="circulos">
        <rect id="Retângulo_314" data-name="Retângulo 314" width="8.113" height="8.821" transform="matrix(0.994, 0.111, -0.111, 0.994, 572.275, 580.683)" fill="#eef2f6"/>
        <rect id="Retângulo_315" data-name="Retângulo 315" width="8.113" height="8.821" transform="matrix(0.994, 0.111, -0.111, 0.994, 582.735, 581.848)" fill="#eef2f6"/>
        <rect id="Retângulo_316" data-name="Retângulo 316" width="8.113" height="8.821" transform="matrix(0.994, 0.111, -0.111, 0.994, 593.195, 583.013)" fill="#eef2f6"/>
      </g>
    </g>
  </g>
</svg>
