<svg xmlns="http://www.w3.org/2000/svg" width="24.802" height="27.187" viewBox="0 0 24.802 27.187">
  <path id="Caminho_9" data-name="Caminho 9" d="M360.988,457.524v-5.5a3.363,3.363,0,0,0-1.116-2.708.124.124,0,0,1,.068-.218,9.951,9.951,0,0,0,5.859-2.568c2.634-2.543,2.964-9.082.1-11.126a6.393,6.393,0,0,0-.046-4.95s-1.953-.727-5.177,1.953a12.2,12.2,0,0,0-4.224-.772h-.276a12.2,12.2,0,0,0-4.223.772c-3.225-2.68-5.177-1.953-5.177-1.953a6.393,6.393,0,0,0-.046,4.95c-2.86,2.044-2.529,8.583.1,11.126a9.968,9.968,0,0,0,6,2.578.1.1,0,0,1,.07.167,3.73,3.73,0,0,0-.926,2.325,4.412,4.412,0,0,1-2.168.441,3.546,3.546,0,0,1-3.2-2.054,3.668,3.668,0,0,0-2.793-1.807c-.63,0-1.014.383-.356.876a6.25,6.25,0,0,1,2.3,2.793c.713,1.644,1.815,2.931,6.222,2.22v3.177l0,.305Z" transform="translate(-343.113 -430.366)" fill="#eef2f6"/>
</svg>
