<svg xmlns="http://www.w3.org/2000/svg" width="27.768" height="23.227" viewBox="0 0 27.768 23.227">
  <path id="Caminho_10" data-name="Caminho 10" d="M356.576,508.632a5.69,5.69,0,0,1,3.408-6.627c3.6-1.7,6.374,1.326,6.374,1.326a7.727,7.727,0,0,0,3.661-1.326c.568,1.073-2.4,3.219-2.4,3.219a16.234,16.234,0,0,0,3.03-.757c-.253,1.2-2.525,2.776-2.525,2.776s.505,9.972-7.257,14.768-16.03,2.146-17.986.126c2.524.631,6.815-1.073,8.267-2.335-2.209.189-5.049-2.524-5.427-4.165a4.455,4.455,0,0,0,2.65-.063s-4.67-1.073-4.607-5.869a4.519,4.519,0,0,0,2.966.694s-4.544-1.957-2.272-7.763C344.459,502.636,348.877,508.758,356.576,508.632Z" transform="translate(-342.882 -501.485)" fill="#eef2f6"/>
</svg>
